<svg width="63" height="56" viewBox="0 0 63 56" fill="none" xmlns="http://www.w3.org/2000/svg">
<path d="M36.9001 20C36.9001 19.4477 37.3479 19 37.9001 19C38.4524 19 38.9001 19.4477 38.9001 20C38.9001 20.5523 38.4524 21 37.9001 21C37.3479 21 36.9001 20.5523 36.9001 20Z" fill="#000"/>
<path fill-rule="evenodd" clip-rule="evenodd" d="M36.1501 20C36.1501 19.0335 36.9336 18.25 37.9001 18.25C38.8666 18.25 39.6501 19.0335 39.6501 20C39.6501 20.9665 38.8666 21.75 37.9001 21.75C36.9336 21.75 36.1501 20.9665 36.1501 20ZM37.9001 19.75C37.7621 19.75 37.6501 19.8619 37.6501 20C37.6501 20.1381 37.7621 20.25 37.9001 20.25C38.0382 20.25 38.1501 20.1381 38.1501 20C38.1501 19.8619 38.0382 19.75 37.9001 19.75Z" fill="#000"/>
<path d="M30.9001 20C30.9001 19.4477 31.3479 19 31.9001 19C32.4524 19 32.9001 19.4477 32.9001 20C32.9001 20.5523 32.4524 21 31.9001 21C31.3479 21 30.9001 20.5523 30.9001 20Z" fill="#000"/>
<path fill-rule="evenodd" clip-rule="evenodd" d="M30.1501 20C30.1501 19.0335 30.9336 18.25 31.9001 18.25C32.8666 18.25 33.6501 19.0335 33.6501 20C33.6501 20.9665 32.8666 21.75 31.9001 21.75C30.9336 21.75 30.1501 20.9665 30.1501 20ZM31.9001 19.75C31.7621 19.75 31.6501 19.8619 31.6501 20C31.6501 20.1381 31.7621 20.25 31.9001 20.25C32.0382 20.25 32.1501 20.1381 32.1501 20C32.1501 19.8619 32.0382 19.75 31.9001 19.75Z" fill="#000"/>
<path d="M24.9001 20C24.9001 19.4477 25.3479 19 25.9001 19C26.4524 19 26.9001 19.4477 26.9001 20C26.9001 20.5523 26.4524 21 25.9001 21C25.3479 21 24.9001 20.5523 24.9001 20Z" fill="#000"/>
<path fill-rule="evenodd" clip-rule="evenodd" d="M24.1501 20C24.1501 19.0335 24.9336 18.25 25.9001 18.25C26.8666 18.25 27.6501 19.0335 27.6501 20C27.6501 20.9665 26.8666 21.75 25.9001 21.75C24.9336 21.75 24.1501 20.9665 24.1501 20ZM25.9001 19.75C25.7621 19.75 25.6501 19.8619 25.6501 20C25.6501 20.1381 25.7621 20.25 25.9001 20.25C26.0382 20.25 26.1501 20.1381 26.1501 20C26.1501 19.8619 26.0382 19.75 25.9001 19.75Z" fill="#000"/>
<path d="M20.9577 43H22.0515V36.8965H24.2634V35.9541H18.7409V36.8965H20.9577V43ZM25.5329 43H26.5925V39.8896C26.5925 39.0352 27.0759 38.5029 27.8522 38.5029C28.6286 38.5029 28.9948 38.9375 28.9948 39.8164V43H30.0495V39.5674C30.0495 38.3027 29.3952 37.5947 28.2087 37.5947C27.4372 37.5947 26.9294 37.9365 26.6706 38.5029H26.5925V35.6172H25.5329V43ZM31.9245 36.9648H32.9401L33.6823 35.8857H33.7653L34.5075 36.9648H35.5231L34.3073 35.2852H33.1354L31.9245 36.9648ZM33.7556 43.1025C35.113 43.1025 35.8454 42.3213 36.0212 41.623L36.031 41.5791L35.0104 41.584L34.9909 41.623C34.864 41.8965 34.4587 42.2334 33.78 42.2334C32.906 42.2334 32.3493 41.6426 32.3298 40.627H36.0896V40.2559C36.0896 38.6641 35.1813 37.5947 33.7019 37.5947C32.2224 37.5947 31.2653 38.7031 31.2653 40.3584V40.3633C31.2653 42.043 32.2028 43.1025 33.7556 43.1025ZM33.7067 38.4639C34.4245 38.4639 34.9567 38.9229 35.0397 39.8701H32.3444C32.4372 38.957 32.9841 38.4639 33.7067 38.4639ZM37.3493 43H38.4089V39.7432C38.4089 39.0498 38.8825 38.5029 39.5222 38.5029C40.1472 38.5029 40.5427 38.8838 40.5427 39.4893V43H41.5974V39.6455C41.5974 39.0059 42.0417 38.5029 42.7155 38.5029C43.4089 38.5029 43.7409 38.8643 43.7409 39.5967V43H44.7956V39.3428C44.7956 38.2393 44.1706 37.5947 43.1013 37.5947C42.364 37.5947 41.7536 37.9707 41.4851 38.542H41.4021C41.1677 37.9707 40.655 37.5947 39.9323 37.5947C39.239 37.5947 38.7214 37.9316 38.487 38.5127H38.4089V37.6973H37.3493V43Z" fill="#000"/>
</svg>
