<svg width="32" height="32" viewBox="0 0 32 32" fill="none" xmlns="http://www.w3.org/2000/svg">
<path d="M3.33022 9.18012C3.10558 9.40439 2.93072 9.67346 2.817 9.96981C2.70328 10.2662 2.65327 10.5831 2.67022 10.9001V11.2101C2.68945 11.8226 2.84914 12.4224 3.13695 12.9634C3.42477 13.5044 3.83303 13.972 4.33022 14.3301C4.50022 14.6401 4.67022 14.6401 4.83022 14.8001C5.50851 15.1194 6.25059 15.2801 7.00022 15.2701H7.83022C8.6582 15.1699 9.42546 14.7845 10.0002 14.1801C10.8543 14.8615 11.908 15.2443 13.0002 15.2701C14.0924 15.2443 15.1462 14.8615 16.0002 14.1801C16.8543 14.8615 17.908 15.2443 19.0002 15.2701C20.0924 15.2443 21.1462 14.8615 22.0002 14.1801C22.5976 14.7532 23.3538 15.133 24.1702 15.2701H25.0002C25.7498 15.2801 26.4919 15.1194 27.1702 14.8001C27.3302 14.6401 27.5002 14.6401 27.6702 14.4901C27.8402 14.3401 28.0002 14.3301 28.1702 14.1801C28.8911 13.3437 29.3009 12.2839 29.3302 11.1801V10.9001C29.3472 10.5831 29.2971 10.2662 29.1834 9.96981C29.0697 9.67346 28.8948 9.40439 28.6702 9.18012L28.3302 8.87012H3.67022L3.33022 9.18012Z" fill="#E5420E"/>
<path d="M25.1597 3.50992C24.6699 3.0316 24.0312 2.73519 23.3497 2.66992H8.46969C7.78818 2.73519 7.1495 3.0316 6.65969 3.50992L3.92969 7.50992H28.0597L25.1597 3.50992Z" fill="#E5420E"/>
<path d="M27.6695 18.5899V15.5899C27.4995 15.7499 27.3295 15.8999 27.1695 15.8999C26.5351 16.3427 25.7724 16.5641 24.9995 16.5299H24.1695C23.3379 16.4276 22.5692 16.0344 21.9995 15.4199C21.5979 15.7938 21.1257 16.0837 20.6105 16.2726C20.0954 16.4615 19.5476 16.5456 18.9995 16.5199C17.9051 16.4965 16.8497 16.1095 15.9995 15.4199C15.1494 16.1095 14.0939 16.4965 12.9995 16.5199C11.9051 16.4965 10.8497 16.1095 9.99954 15.4199C9.36466 15.9398 8.62417 16.3152 7.82954 16.5199H6.99954C6.24991 16.5299 5.50784 16.3692 4.82954 16.0499C4.70569 15.8897 4.52812 15.7796 4.32954 15.7399V26.5099C4.32439 26.7257 4.36496 26.9401 4.44857 27.1391C4.53219 27.3381 4.65695 27.5171 4.81468 27.6644C4.9724 27.8118 5.15951 27.9241 5.36372 27.994C5.56793 28.0638 5.78461 28.0897 5.99954 28.0699H11.8295V20.2599C11.8244 20.0441 11.865 19.8297 11.9486 19.6307C12.0322 19.4318 12.157 19.2527 12.3147 19.1054C12.4724 18.9581 12.6595 18.8458 12.8637 18.7759C13.0679 18.706 13.2846 18.6801 13.4995 18.6999H18.4995C18.8532 18.6924 19.2012 18.7898 19.4995 18.9799C20.6083 17.9882 22.0245 17.4081 23.5103 17.3371C24.9962 17.2661 26.4613 17.7084 27.6595 18.5899H27.6695Z" fill="#E5420E"/>
<path opacity="0.7" d="M23.8301 18.3301C22.3722 18.3327 20.9748 18.913 19.9439 19.9439C18.913 20.9748 18.3327 22.3722 18.3301 23.8301C18.3301 24.9179 18.6526 25.9812 19.257 26.8857C19.8613 27.7902 20.7203 28.4951 21.7253 28.9114C22.7303 29.3277 23.8362 29.4366 24.9031 29.2244C25.97 29.0122 26.95 28.4884 27.7192 27.7192C28.4884 26.95 29.0122 25.97 29.2244 24.9031C29.4366 23.8362 29.3277 22.7303 28.9114 21.7253C28.4951 20.7203 27.7902 19.8613 26.8857 19.257C25.9812 18.6526 24.9179 18.3301 23.8301 18.3301ZM25.8901 24.6801H24.7001V25.9101C24.7001 26.1408 24.6084 26.3621 24.4453 26.5253C24.2821 26.6884 24.0608 26.7801 23.8301 26.7801C23.5993 26.7801 23.3781 26.6884 23.2149 26.5253C23.0517 26.3621 22.9601 26.1408 22.9601 25.9101V24.6801H21.7801C21.5493 24.6801 21.3281 24.5884 21.1649 24.4253C21.0017 24.2621 20.9101 24.0408 20.9101 23.8101C20.9101 23.5793 21.0017 23.3581 21.1649 23.1949C21.3281 23.0317 21.5493 22.9401 21.7801 22.9401H23.0001V21.8001C23.0001 21.5693 23.0917 21.3481 23.2549 21.1849C23.4181 21.0217 23.6393 20.9301 23.8701 20.9301C24.1008 20.9301 24.3221 21.0217 24.4853 21.1849C24.6484 21.3481 24.7401 21.5693 24.7401 21.8001V22.9401H25.9301C26.1608 22.9401 26.3821 23.0317 26.5453 23.1949C26.7084 23.3581 26.8001 23.5793 26.8001 23.8101C26.8001 24.0408 26.7084 24.2621 26.5453 24.4253C26.3821 24.5884 26.1608 24.6801 25.9301 24.6801H25.8901Z" fill="#E5420E"/>
</svg>
