<svg width="63" height="56" viewBox="0 0 63 56" fill="none" xmlns="http://www.w3.org/2000/svg">
<path d="M36.7002 24.2276C39.0306 24.7767 40.7002 26.2584 40.7002 28" stroke="#000" stroke-width="1.5" stroke-linecap="round" stroke-linejoin="round"/>
<path d="M22.7002 28C22.7002 25.7909 25.3865 24 28.7002 24C32.0139 24 34.7002 25.7909 34.7002 28" stroke="#000" stroke-width="1.5" stroke-linecap="round" stroke-linejoin="round"/>
<path d="M34.7002 21C36.9093 21 38.7002 19.2091 38.7002 17C38.7002 14.7909 36.9093 13 34.7002 13" stroke="#000" stroke-width="1.5" stroke-linecap="round" stroke-linejoin="round"/>
<path d="M28.7002 21C30.9093 21 32.7002 19.2091 32.7002 17C32.7002 14.7909 30.9093 13 28.7002 13C26.4911 13 24.7002 14.7909 24.7002 17C24.7002 19.2091 26.4911 21 28.7002 21Z" stroke="#000" stroke-width="1.5" stroke-linecap="round" stroke-linejoin="round"/>
<path d="M4.15132 43H5.24507V40.6514L6.03608 39.7529L8.39936 43H9.76655L6.80757 39.0107L9.53218 35.9541H8.23823L5.32319 39.2842H5.24507V35.9541H4.15132V43ZM10.8457 43H11.9052V39.8896C11.9052 39.0352 12.3886 38.5029 13.165 38.5029C13.9414 38.5029 14.3076 38.9375 14.3076 39.8164V43H15.3623V39.5674C15.3623 38.3027 14.708 37.5947 13.5214 37.5947C12.75 37.5947 12.2421 37.9365 11.9833 38.5029H11.9052V35.6172H10.8457V43ZM19.2734 36.9648L20.4208 35.2852H19.2929L18.4384 36.9648H19.2734ZM18.2968 43.0879C19 43.0879 19.5566 42.7852 19.8691 42.248H19.9521V43H21.0019V39.3721C21.0019 38.2588 20.25 37.5947 18.9169 37.5947C17.7109 37.5947 16.8759 38.1758 16.749 39.0449L16.7441 39.0791H17.7646L17.7695 39.0596C17.8964 38.6836 18.2822 38.4688 18.8681 38.4688C19.5859 38.4688 19.9521 38.791 19.9521 39.3721V39.8408L18.5166 39.9238C17.2519 40.002 16.539 40.5537 16.539 41.501V41.5107C16.539 42.4727 17.2861 43.0879 18.2968 43.0879ZM17.5937 41.4668V41.457C17.5937 40.9785 17.9257 40.7148 18.6582 40.6709L19.9521 40.5879V41.042C19.9521 41.7256 19.371 42.2432 18.58 42.2432C18.0087 42.2432 17.5937 41.9551 17.5937 41.4668ZM24.7275 43.1025C26.041 43.1025 26.7978 42.3945 26.9882 41.3643L26.998 41.3203H25.9824L25.9726 41.3447C25.8017 41.916 25.3916 42.2188 24.7275 42.2188C23.8535 42.2188 23.3115 41.5059 23.3115 40.334V40.3242C23.3115 39.1816 23.8437 38.4785 24.7275 38.4785C25.4306 38.4785 25.8603 38.8691 25.9775 39.3916L25.9824 39.4062L26.998 39.4014V39.377C26.8515 38.3467 26.0556 37.5947 24.7226 37.5947C23.1748 37.5947 22.2324 38.6445 22.2324 40.3242V40.334C22.2324 42.0479 23.1796 43.1025 24.7275 43.1025ZM28.248 43H29.3076V39.8896C29.3076 39.0352 29.791 38.5029 30.5673 38.5029C31.3437 38.5029 31.7099 38.9375 31.7099 39.8164V43H32.7646V39.5674C32.7646 38.3027 32.1103 37.5947 30.9238 37.5947C30.1523 37.5947 29.6445 37.9365 29.3857 38.5029H29.3076V35.6172H28.248V43ZM37.0273 43H38.0869V39.8896C38.0869 39.0352 38.5703 38.5029 39.3466 38.5029C40.123 38.5029 40.4892 38.9375 40.4892 39.8164V43H41.5439V39.5674C41.5439 38.3027 40.8896 37.5947 39.7031 37.5947C38.9316 37.5947 38.4238 37.9365 38.165 38.5029H38.0869V35.6172H37.0273V43ZM44.7421 36.9648H45.5771L44.7226 35.2852H43.5898L44.7421 36.9648ZM44.4785 43.0879C45.1816 43.0879 45.7382 42.7852 46.0507 42.248H46.1337V43H47.1835V39.3721C47.1835 38.2588 46.4316 37.5947 45.0986 37.5947C43.8925 37.5947 43.0576 38.1758 42.9306 39.0449L42.9257 39.0791H43.9462L43.9511 39.0596C44.0781 38.6836 44.4638 38.4688 45.0498 38.4688C45.7675 38.4688 46.1337 38.791 46.1337 39.3721V39.8408L44.6982 39.9238C43.4335 40.002 42.7207 40.5537 42.7207 41.501V41.5107C42.7207 42.4727 43.4677 43.0879 44.4785 43.0879ZM43.7753 41.4668V41.457C43.7753 40.9785 44.1074 40.7148 44.8398 40.6709L46.1337 40.5879V41.042C46.1337 41.7256 45.5527 42.2432 44.7617 42.2432C44.1904 42.2432 43.7753 41.9551 43.7753 41.4668ZM48.6777 43H49.7373V39.8896C49.7373 39.0352 50.2207 38.5029 50.997 38.5029C51.7734 38.5029 52.1396 38.9375 52.1396 39.8164V43H53.1943V39.5674C53.1943 38.3027 52.54 37.5947 51.3535 37.5947C50.582 37.5947 50.0742 37.9365 49.8154 38.5029H49.7373V37.6973H48.6777V43ZM56.915 44.8701C58.4189 44.8701 59.371 44.0986 59.371 42.8926V37.6973H58.3164V38.5664H58.2529C57.9453 37.9707 57.3691 37.6045 56.6269 37.6045C55.25 37.6045 54.4052 38.6738 54.4052 40.1875V40.1973C54.4052 41.6914 55.2451 42.7412 56.6074 42.7412C57.3349 42.7412 57.9208 42.4189 58.2431 41.8428H58.3212V42.8877C58.3212 43.6104 57.8037 44.0205 56.9296 44.0205C56.2119 44.0205 55.7822 43.7617 55.6943 43.3955L55.6894 43.3857H54.6201L54.6103 43.3955C54.7373 44.2793 55.5673 44.8701 56.915 44.8701ZM56.9003 41.8672C55.997 41.8672 55.4892 41.1787 55.4892 40.1924V40.1826C55.4892 39.1963 55.997 38.5029 56.9003 38.5029C57.7939 38.5029 58.3408 39.1963 58.3408 40.1826V40.1924C58.3408 41.1836 57.7988 41.8672 56.9003 41.8672Z" fill="#000"/>
</svg>
