<svg width="24" height="22" viewBox="0 0 24 22" fill="none" xmlns="http://www.w3.org/2000/svg">
<path fill-rule="evenodd" clip-rule="evenodd" d="M18.6668 21.6669H24.0001C24.0001 18.7518 20.4001 16.3667 16.0001 16.3667C15.4668 16.3667 15.0668 16.3667 14.5334 16.4992C14.8001 16.6317 15.0668 16.7642 15.3334 16.8967C17.2001 18.0893 18.5334 19.6794 18.6668 21.6669Z" fill="#E69803"/>
<path opacity="0.7" fill-rule="evenodd" clip-rule="evenodd" d="M7.73325 0.73111C4.13325 0.73111 1.33325 3.64622 1.33325 7.09136C1.33325 10.5365 4.13325 13.4516 7.73325 13.4516C11.1999 13.4516 14.1333 10.669 14.1333 7.09136C13.9999 3.64622 11.1999 0.73111 7.73325 0.73111Z" fill="#E69803"/>
<path opacity="0.7" fill-rule="evenodd" clip-rule="evenodd" d="M13.6 12.7891C14.2666 13.0541 14.9333 13.0541 15.6 13.0541C19.0666 13.0541 22 10.2715 22 6.69384C22 3.24871 19.2 0.333595 15.6 0.333595C14.6666 0.333595 13.8667 0.4661 13.0667 0.863616C14.9333 2.45368 16 4.70627 16 7.09136C16 9.34395 15.0666 11.3315 13.6 12.7891Z" fill="#E69803"/>
<path d="M8 16.3667C3.6 16.3667 0 18.7518 0 21.6669H16C16 18.7518 12.4 16.3667 8 16.3667Z" fill="#E69803"/>
</svg>
