<svg width="28" height="20" viewBox="0 0 28 20" fill="none" xmlns="http://www.w3.org/2000/svg">
<path d="M2.20264 9.67929V17.1516C2.20264 18.3611 3.31957 19.3287 4.71573 19.3287H6.80997H13.2323V9.6526C13.2323 9.6526 5.84485 9.6377 2.20264 9.67929Z" fill="#D96285"/>
<path d="M25.8 9.67929V17.1516C25.8 18.3611 24.6831 19.3287 23.287 19.3287H21.1927H14.7704V9.6526C14.7704 9.6526 22.1578 9.6377 25.8 9.67929Z" fill="#D96285"/>
<path opacity="0.7" d="M13.2322 0.647461H12.953H9.04371H5.27408H3.17984C1.78368 0.647461 0.666748 1.76439 0.666748 3.16055V5.95287C0.666748 6.93018 1.22521 7.76788 2.06291 8.18673C2.34214 8.32634 2.76099 8.32634 3.04022 8.32634C6.43726 8.32634 9.83474 8.32634 13.2322 8.32634V1.34554C13.2322 1.20593 13.2322 0.926693 13.2322 0.647461Z" fill="#D96285"/>
<path opacity="0.7" d="M14.7646 0.647461H15.0439H18.9531H22.7227H24.817C26.2131 0.647461 27.3301 1.76439 27.3301 3.16055V5.95287C27.3301 6.93018 26.7716 7.76788 25.9339 8.18673C25.6547 8.32634 25.2358 8.32634 24.9566 8.32634C21.5596 8.32634 18.1621 8.32634 14.7646 8.32634V1.34554C14.7646 1.20593 14.7646 0.926693 14.7646 0.647461Z" fill="#D96285"/>
</svg>
