<svg width="63" height="56" viewBox="0 0 63 56" fill="none" xmlns="http://www.w3.org/2000/svg">
<path fill-rule="evenodd" clip-rule="evenodd" d="M34.9697 20.4697C35.2626 20.1768 35.7374 20.1768 36.0303 20.4697L39.0303 23.4697C39.171 23.6103 39.25 23.8011 39.25 24C39.25 24.1989 39.171 24.3897 39.0303 24.5303L36.0303 27.5303C35.7374 27.8232 35.2626 27.8232 34.9697 27.5303C34.6768 27.2374 34.6768 26.7626 34.9697 26.4697L37.4393 24L34.9697 21.5303C34.6768 21.2374 34.6768 20.7626 34.9697 20.4697Z" fill="#000"/>
<path fill-rule="evenodd" clip-rule="evenodd" d="M23.75 24C23.75 23.5858 24.0858 23.25 24.5 23.25H38.5C38.9142 23.25 39.25 23.5858 39.25 24C39.25 24.4142 38.9142 24.75 38.5 24.75H24.5C24.0858 24.75 23.75 24.4142 23.75 24Z" fill="#000"/>
<path fill-rule="evenodd" clip-rule="evenodd" d="M28.0303 12.4697C28.3232 12.7626 28.3232 13.2374 28.0303 13.5303L25.5607 16L28.0303 18.4697C28.3232 18.7626 28.3232 19.2374 28.0303 19.5303C27.7374 19.8232 27.2626 19.8232 26.9697 19.5303L23.9697 16.5303C23.6768 16.2374 23.6768 15.7626 23.9697 15.4697L26.9697 12.4697C27.2626 12.1768 27.7374 12.1768 28.0303 12.4697Z" fill="#000"/>
<path fill-rule="evenodd" clip-rule="evenodd" d="M24.5 15.25L38.5 15.25C38.9142 15.25 39.25 15.5858 39.25 16C39.25 16.4142 38.9142 16.75 38.5 16.75L24.5 16.75C24.0858 16.75 23.75 16.4142 23.75 16C23.75 15.5858 24.0858 15.25 24.5 15.25Z" fill="#000"/>
<path d="M16.3829 43H17.4766V36.8965H19.6885V35.9541H14.1661V36.8965H16.3829V43ZM20.9581 43H22.0177V39.8896C22.0177 39.0352 22.501 38.5029 23.2774 38.5029C24.0538 38.5029 24.42 38.9375 24.42 39.8164V43H25.4747V39.5674C25.4747 38.3027 24.8204 37.5947 23.6339 37.5947C22.8624 37.5947 22.3546 37.9365 22.0958 38.5029H22.0177V35.6172H20.9581V43ZM28.7218 43.1025C29.4932 43.1025 30.0303 42.7705 30.2843 42.1992H30.3673V43H31.4219V37.6973H30.3673V40.8076C30.3673 41.6621 29.9132 42.1943 29.0635 42.1943C28.2872 42.1943 27.9649 41.7598 27.9649 40.8809V37.6973H26.9053V41.1299C26.9053 42.3848 27.5255 43.1025 28.7218 43.1025ZM37.9161 43.1025C39.2296 43.1025 39.9864 42.3945 40.1768 41.3643L40.1866 41.3203H39.171L39.1612 41.3447C38.9903 41.916 38.5802 42.2188 37.9161 42.2188C37.0421 42.2188 36.5001 41.5059 36.5001 40.334V40.3242C36.5001 39.1816 37.0323 38.4785 37.9161 38.4785C38.6192 38.4785 39.0489 38.8691 39.1661 39.3916L39.171 39.4062L40.1866 39.4014V39.377C40.0401 38.3467 39.2442 37.5947 37.9112 37.5947C36.3634 37.5947 35.421 38.6445 35.421 40.3242V40.334C35.421 42.0479 36.3682 43.1025 37.9161 43.1025ZM41.4366 43H42.4962V39.8896C42.4962 39.0352 42.9796 38.5029 43.7559 38.5029C44.5323 38.5029 44.8985 38.9375 44.8985 39.8164V43H45.9532V39.5674C45.9532 38.3027 45.2989 37.5947 44.1124 37.5947C43.3409 37.5947 42.8331 37.9365 42.5743 38.5029H42.4962V35.6172H41.4366V43ZM47.9844 36.75C48.3458 36.75 48.6485 36.4521 48.6485 36.0908C48.6485 35.7246 48.3458 35.4268 47.9844 35.4268C47.6182 35.4268 47.3204 35.7246 47.3204 36.0908C47.3204 36.4521 47.6182 36.75 47.9844 36.75ZM47.4522 43H48.5069V37.6973H47.4522V43Z" fill="#000"/>
</svg>
