<svg width="63" height="56" viewBox="0 0 63 56" fill="none" xmlns="http://www.w3.org/2000/svg">
<path fill-rule="evenodd" clip-rule="evenodd" d="M36.8857 10C37.4571 10 37.8857 10.3313 38.3143 10.6625L40.6 13.8095H21.6L23.7428 10.6625C24.1714 10.3313 24.6 10 25.1714 10H36.8857ZM21.125 15.1306C20.7312 15.4993 20.6 15.9908 20.6 16.4824V16.7281C20.6 17.7112 21.125 18.5715 21.9125 19.1859C22 19.3498 22.0875 19.4044 22.175 19.459C22.2187 19.4863 22.2625 19.5136 22.3062 19.5546C22.8312 19.8003 23.3562 19.9232 24.0125 19.9232H24.6687C25.325 19.8003 25.9812 19.5546 26.375 19.063C27.0312 19.5546 27.8187 19.9232 28.7375 19.9232C29.6562 19.9232 30.4437 19.5546 31.1 19.063C31.7562 19.5546 32.5437 19.9232 33.4625 19.9232C34.3812 19.9232 35.1687 19.5546 35.825 19.063C36.35 19.5546 36.875 19.8003 37.5312 19.9232H38.1875C38.8437 19.9232 39.3687 19.8003 39.8937 19.5546C39.9593 19.4931 40.025 19.4624 40.0906 19.4317C40.1562 19.401 40.2218 19.3702 40.2875 19.3088C40.3531 19.2473 40.4187 19.2166 40.4844 19.1859C40.55 19.1552 40.6156 19.1245 40.6812 19.063C41.2062 18.4486 41.6 17.5884 41.6 16.7281V16.4824C41.6 15.9908 41.4687 15.4993 41.075 15.1306L40.8125 14.8848H21.3875L21.125 15.1306ZM38.1875 20.9063H37.5312C36.875 20.7834 36.2187 20.5376 35.825 20.0461C35.1687 20.6605 34.3812 20.9063 33.4625 20.9063C32.5437 20.9063 31.7562 20.5376 31.1 20.0461C30.4437 20.5376 29.6562 20.9063 28.7375 20.9063C27.8187 20.9063 27.0312 20.5376 26.375 20.0461C25.85 20.4147 25.325 20.7834 24.6687 20.9063H24.0125C23.3562 20.9063 22.8312 20.7834 22.3062 20.5376C22.175 20.4147 22.0437 20.2918 21.9125 20.2918V28.7711C21.9125 29.5084 22.4375 30 23.225 30H27.8187V23.8556C27.8187 23.1183 28.3437 22.6267 29.1312 22.6267H33.0687C33.8562 22.6267 34.3812 23.1183 34.3812 23.8556V30H38.975C39.7625 30 40.2875 29.5084 40.2875 28.7711V20.169C40.1562 20.2918 40.025 20.4147 39.8937 20.4147C39.3687 20.7834 38.8437 20.9063 38.1875 20.9063Z" fill="#000"/>
<path d="M16.7543 43.1709C17.2182 43.1709 17.6479 43.0977 18.0239 42.9512L18.6196 43.7617H19.7475L18.8198 42.4971C19.601 41.8672 20.0405 40.8174 20.0405 39.4795V39.4697C20.0405 37.209 18.7807 35.7832 16.7543 35.7832C14.7329 35.7832 13.4633 37.2041 13.4633 39.4697V39.4795C13.4633 41.7402 14.7036 43.1709 16.7543 43.1709ZM16.7543 42.2041C15.3969 42.2041 14.5815 41.1299 14.5815 39.4795V39.4697C14.5815 37.8047 15.4213 36.75 16.7543 36.75C18.0874 36.75 18.9223 37.8047 18.9223 39.4697V39.4795C18.9223 40.4121 18.6586 41.1641 18.185 41.6377L17.6235 40.876H16.4956L17.4038 42.1064C17.2036 42.1699 16.9838 42.2041 16.7543 42.2041ZM23.1704 43.1025C23.9418 43.1025 24.479 42.7705 24.7329 42.1992H24.8159V43H25.8706V37.6973H24.8159V40.8076C24.8159 41.6621 24.3618 42.1943 23.5122 42.1943C22.7358 42.1943 22.4135 41.7598 22.4135 40.8809V37.6973H21.354V41.1299C21.354 42.3848 21.9741 43.1025 23.1704 43.1025ZM29.0493 36.9648H29.767C30.1577 36.7061 30.3579 36.4473 30.3579 36.1055C30.3579 35.5781 29.7963 35.1729 29.0737 35.1729C28.7954 35.1729 28.5268 35.2168 28.4096 35.2656V35.8906C28.5073 35.8711 28.644 35.8516 28.8295 35.8516C29.2543 35.8516 29.5668 35.998 29.5668 36.252C29.5668 36.457 29.3959 36.667 29.0493 36.9111V36.9648ZM28.854 43.0879C29.5571 43.0879 30.1137 42.7852 30.4262 42.248H30.5092V43H31.559V39.3721C31.559 38.2588 30.8071 37.5947 29.4741 37.5947C28.268 37.5947 27.4331 38.1758 27.3061 39.0449L27.3012 39.0791H28.3217L28.3266 39.0596C28.4536 38.6836 28.8393 38.4688 29.4252 38.4688C30.143 38.4688 30.5092 38.791 30.5092 39.3721V39.8408L29.0737 39.9238C27.809 40.002 27.0961 40.5537 27.0961 41.501V41.5107C27.0961 42.4727 27.8432 43.0879 28.854 43.0879ZM28.1508 41.4668V41.457C28.1508 40.9785 28.4829 40.7148 29.2153 40.6709L30.5092 40.5879V41.042C30.5092 41.7256 29.9282 42.2432 29.1372 42.2432C28.5659 42.2432 28.1508 41.9551 28.1508 41.4668ZM33.0532 43H34.1127V39.8896C34.1127 39.0352 34.5961 38.5029 35.3725 38.5029C36.1489 38.5029 36.5151 38.9375 36.5151 39.8164V43H37.5698V39.5674C37.5698 38.3027 36.9155 37.5947 35.729 37.5947C34.9575 37.5947 34.4497 37.9365 34.1909 38.5029H34.1127V37.6973H33.0532V43ZM41.8325 43H42.892V35.6172H41.8325V43ZM46.8666 36.9648L48.019 35.2852H46.8911L46.0317 36.9648H46.8666ZM44.9868 44.8652C46.061 44.8652 46.5981 44.4697 47.0473 43.2051L49.02 37.6973H47.9067L46.5834 41.9355H46.4907L45.1625 37.6973H44.02L45.9438 43.0049L45.8657 43.2783C45.7094 43.8154 45.4116 44.0254 44.9184 44.0254C44.7963 44.0254 44.6645 44.0205 44.562 44.0059V44.8408C44.6987 44.8555 44.8549 44.8652 44.9868 44.8652Z" fill="#000"/>
</svg>
