<svg width="24" height="26" viewBox="0 0 24 26" fill="none" xmlns="http://www.w3.org/2000/svg">
<path fill-rule="evenodd" clip-rule="evenodd" d="M19.8612 0.370438C20.8439 0.370438 21.6862 0.777443 22.2477 1.32012C22.9496 1.99846 23.3708 2.94814 23.5111 3.89782V21.6704C23.5111 22.6201 23.09 23.5697 22.3881 24.2481C21.6862 24.9264 20.7035 25.3334 19.7208 25.3334H4.27863C3.29595 25.3334 2.31326 24.9264 1.61135 24.2481C0.519851 23.2679 0.488281 22.6201 0.488281 21.6704V3.89782C0.488281 2.94814 0.769048 1.99846 1.47096 1.45578C2.17288 0.777443 4.66602 0.370438 5.6487 0.370438V2.13413C5.6487 3.35514 5.81584 4.44049 6.65814 5.11883C7.50044 5.79717 8.3337 6.12753 9.60619 6.20418H10.4555H13.5439C14.667 6.20418 15.6497 5.66151 16.492 4.98316C17.323 4.31388 17.3229 3.2484 17.3227 2.17762L17.3227 2.13413V0.370438H19.5804H19.8612ZM16.7071 10.892C17.0976 10.5015 17.0976 9.86831 16.7071 9.47778C16.3166 9.08726 15.6834 9.08726 15.2929 9.47778L10.6667 14.104L8.70711 12.1445C8.31658 11.7539 7.68342 11.7539 7.29289 12.1445C6.90237 12.535 6.90237 13.1681 7.29289 13.5587L9.95956 16.2253C10.3501 16.6159 10.9832 16.6159 11.3738 16.2253L16.7071 10.892Z" fill="#E69803"/>
</svg>
