<svg width="28" height="20" viewBox="0 0 28 20" fill="none" xmlns="http://www.w3.org/2000/svg">
<path fill-rule="evenodd" clip-rule="evenodd" d="M3.42017 9.48117C3.42017 8.44878 4.48979 7.61186 5.80923 7.61186H22.1914C23.5108 7.61186 24.5804 8.44878 24.5804 9.48117V18.0266C24.5804 19.059 23.5108 19.8959 22.1914 19.8959H5.80923C4.48979 19.8959 3.42017 19.059 3.42017 18.0266V9.48117Z" fill="#E69803"/>
<path opacity="0.7" fill-rule="evenodd" clip-rule="evenodd" d="M2.1499 1.0718C2.60048 0.463655 3.31267 0.10498 4.06965 0.10498H23.9304C24.6874 0.10498 25.3996 0.463652 25.8502 1.07181L26.8614 2.4367C28.0293 4.01307 26.9038 6.247 24.9417 6.247H3.05841C1.09625 6.247 -0.0292658 4.01307 1.13866 2.4367L2.1499 1.0718Z" fill="#E69803"/>
</svg>
