<svg width="63" height="56" viewBox="0 0 63 56" fill="none" xmlns="http://www.w3.org/2000/svg">
<path d="M31.4428 25.2328C31.0008 25.2328 30.6456 25.588 30.6456 26.0299C30.6456 26.4719 31.0008 26.8271 31.4428 26.8271C31.8848 26.8271 32.2399 26.4719 32.2399 26.0299C32.2399 25.588 31.8769 25.2328 31.4428 25.2328Z" fill="#000"/>
<path d="M39.6271 13.6464L36.912 10.4736C36.6594 10.1736 36.2806 10 35.8938 10H26.9909C26.5963 10 26.2253 10.1736 25.9728 10.4736L23.2498 13.6464C22.9578 13.9779 22.7999 14.412 22.7999 14.854V15.1223C22.7999 15.9826 23.1946 16.7877 23.8733 17.3165C23.9838 17.4033 24.0943 17.4743 24.2127 17.5375C24.56 17.7348 24.9467 17.8532 25.3414 17.8848V28.9424C25.3414 29.5264 25.8149 30 26.399 30H36.4779C37.062 30 37.5355 29.5264 37.5355 28.9424V17.8848C37.938 17.8532 38.3248 17.7348 38.6642 17.5375C38.972 17.3639 39.2403 17.135 39.4692 16.8508C39.8717 16.3457 40.0691 15.7143 40.0691 15.075V14.8619C40.077 14.412 39.9191 13.9779 39.6271 13.6464ZM26.9357 28.4136V17.5454C27.1567 17.427 27.354 17.277 27.5355 17.0955C28.0485 17.6085 28.7431 17.9006 29.4929 17.9006C30.2348 17.9006 30.9294 17.6085 31.4424 17.0955C31.9554 17.6006 32.6658 17.9006 33.3998 17.9006C34.1417 17.9006 34.8362 17.6085 35.3493 17.0955C35.5308 17.277 35.7281 17.427 35.9491 17.5454V28.4136H26.9357ZM38.4353 15.1223C38.4353 15.438 38.309 15.7222 38.0959 15.9274C37.8907 16.1326 37.6144 16.251 37.2987 16.251C37.1093 16.251 36.9357 16.2036 36.7778 16.1247C36.4148 15.9353 36.1622 15.5564 36.1622 15.1223C36.1622 14.8066 35.9965 14.5067 35.7123 14.3804C35.1046 14.1042 34.5205 14.5462 34.5205 15.1223C34.5205 15.7459 34.0154 16.251 33.3919 16.251C32.7684 16.251 32.2632 15.7459 32.2632 15.1302C32.2632 14.7119 31.9475 14.3489 31.5292 14.3015C31.032 14.2541 30.6137 14.6409 30.6137 15.1223C30.6137 15.7459 30.1085 16.251 29.485 16.251C28.8615 16.251 28.3564 15.7459 28.3564 15.1302C28.3564 14.7119 28.0407 14.3489 27.6223 14.3015C27.1251 14.2463 26.7068 14.633 26.7068 15.1223C26.7068 15.5564 26.4542 15.9353 26.0912 16.1247C25.9333 16.2036 25.7597 16.251 25.5703 16.251C25.2624 16.251 24.9783 16.1247 24.7731 15.9274C24.5679 15.7222 24.4337 15.438 24.4337 15.1223V14.854C24.4337 14.7987 24.4495 14.7514 24.489 14.7119L27.1172 11.6417H35.7439L38.3721 14.7119C38.4037 14.7514 38.4274 14.7987 38.4274 14.854V15.1223H38.4353Z" fill="#000"/>
<path d="M6.19258 43H9.08809C10.592 43 11.4953 42.248 11.4953 41.0127V41.0029C11.4953 40.085 10.8605 39.4111 9.9084 39.3086V39.2256C10.6018 39.1084 11.1437 38.4492 11.1437 37.7168V37.707C11.1437 36.6279 10.3479 35.9541 9.02461 35.9541H6.19258V43ZM8.7707 36.8477C9.58125 36.8477 10.0549 37.2334 10.0549 37.8975V37.9072C10.0549 38.5908 9.55195 38.9521 8.58516 38.9521H7.28633V36.8477H8.7707ZM8.80488 39.7871C9.83516 39.7871 10.3771 40.1777 10.3771 40.9346V40.9443C10.3771 41.7012 9.85469 42.1064 8.86836 42.1064H7.28633V39.7871H8.80488ZM15.2111 36.9648L16.3586 35.2852H15.2307L14.3762 36.9648H15.2111ZM14.2346 43.0879C14.9377 43.0879 15.4943 42.7852 15.8068 42.248H15.8898V43H16.9396V39.3721C16.9396 38.2588 16.1877 37.5947 14.8547 37.5947C13.6486 37.5947 12.8137 38.1758 12.6867 39.0449L12.6818 39.0791H13.7023L13.7072 39.0596C13.8342 38.6836 14.2199 38.4688 14.8059 38.4688C15.5236 38.4688 15.8898 38.791 15.8898 39.3721V39.8408L14.4543 39.9238C13.1896 40.002 12.4768 40.5537 12.4768 41.501V41.5107C12.4768 42.4727 13.2238 43.0879 14.2346 43.0879ZM13.5314 41.4668V41.457C13.5314 40.9785 13.8635 40.7148 14.5959 40.6709L15.8898 40.5879V41.042C15.8898 41.7256 15.3088 42.2432 14.5178 42.2432C13.9465 42.2432 13.5314 41.9551 13.5314 41.4668ZM18.4338 43H19.4934V39.8896C19.4934 39.0352 19.9768 38.5029 20.7531 38.5029C21.5295 38.5029 21.8957 38.9375 21.8957 39.8164V43H22.9504V39.5674C22.9504 38.3027 22.2961 37.5947 21.1096 37.5947C20.3381 37.5947 19.8303 37.9365 19.5715 38.5029H19.4934V37.6973H18.4338V43ZM30.2893 43.1709C32.3254 43.1709 33.5754 41.7354 33.5754 39.4795V39.4697C33.5754 37.209 32.3156 35.7832 30.2893 35.7832C28.2678 35.7832 26.9982 37.2041 26.9982 39.4697V39.4795C26.9982 41.7402 28.2385 43.1709 30.2893 43.1709ZM30.2893 42.2041C28.9318 42.2041 28.1164 41.1299 28.1164 39.4795V39.4697C28.1164 37.8047 28.9562 36.75 30.2893 36.75C31.6223 36.75 32.4572 37.8047 32.4572 39.4697V39.4795C32.4572 41.1299 31.6271 42.2041 30.2893 42.2041ZM34.9377 43H35.9973V39.8896C35.9973 39.0352 36.4807 38.5029 37.257 38.5029C38.0334 38.5029 38.3996 38.9375 38.3996 39.8164V43H39.4543V39.5674C39.4543 38.3027 38.8 37.5947 37.6135 37.5947C36.842 37.5947 36.3342 37.9365 36.0754 38.5029H35.9973V37.6973H34.9377V43ZM40.9826 43H42.0422V35.6172H40.9826V43ZM44.1711 36.75C44.5324 36.75 44.8352 36.4521 44.8352 36.0908C44.8352 35.7246 44.5324 35.4268 44.1711 35.4268C43.8049 35.4268 43.507 35.7246 43.507 36.0908C43.507 36.4521 43.8049 36.75 44.1711 36.75ZM43.6389 43H44.6936V37.6973H43.6389V43ZM46.2365 43H47.2961V39.8896C47.2961 39.0352 47.7795 38.5029 48.5559 38.5029C49.3322 38.5029 49.6984 38.9375 49.6984 39.8164V43H50.7531V39.5674C50.7531 38.3027 50.0988 37.5947 48.9123 37.5947C48.1408 37.5947 47.633 37.9365 47.3742 38.5029H47.2961V37.6973H46.2365V43ZM54.4592 43.1025C55.8166 43.1025 56.549 42.3213 56.7248 41.623L56.7346 41.5791L55.7141 41.584L55.6945 41.623C55.5676 41.8965 55.1623 42.2334 54.4836 42.2334C53.6096 42.2334 53.0529 41.6426 53.0334 40.627H56.7932V40.2559C56.7932 38.6641 55.885 37.5947 54.4055 37.5947C52.926 37.5947 51.9689 38.7031 51.9689 40.3584V40.3633C51.9689 42.043 52.9064 43.1025 54.4592 43.1025ZM54.4104 38.4639C55.1281 38.4639 55.6604 38.9229 55.7434 39.8701H53.048C53.1408 38.957 53.6877 38.4639 54.4104 38.4639Z" fill="#000"/>
</svg>
